<svg xmlns="http://www.w3.org/2000/svg" viewBox="0 0 165.33 179.82">
  <title>logo_blue</title>
  <g id="Layer_2" data-name="Layer 2">
    <g id="Layer_1-2" data-name="Layer 1">
      <g>
        <polyline points="82.66 179.82 69.5 161.88 49.13 161.2 38.35 143.9 17.98 143.22 8.95 127.67 0 112.09 9.6 94.11 0 76.13 9.6 58.14 0.64 37.76 22.77 35.33 33.54 18.02 53.91 17.34 64.69 0.04 82.66 0 100.63 0.03 111.41 17.34 131.78 18.02 142.56 35.32 164.69 37.76 155.73 58.13 165.33 76.12 155.73 94.1 165.33 112.08 156.37 127.67 147.36 143.21 126.99 143.89 116.22 161.19 95.41 162.16 82.66 179.82" style="fill: #0073a5"/>
        <rect x="30.39" y="53.12" width="3.89" height="18.89" style="fill: #fff"/>
        <path d="M43.32,64.05c3,0,4.37,1.14,4.37,1.14v-2c0-1-.62-2.05-2.86-2.05-1.16,0-2.89.41-2.89,1.7H38c0-3.18,2.83-4.61,6.88-4.61s6.75,1.56,6.75,5v4.22c0,1.13.27,1.45.89,1.45a1.3,1.3,0,0,0,.56-.1V72a3.61,3.61,0,0,1-1.67.28,3.21,3.21,0,0,1-3.27-1.89H47.9c0,.08-1,1.89-5,1.89-3,0-5.59-1.27-5.59-4.08s2.81-4.16,6-4.16m4.37,4.27v-.81s-.78-.81-3.24-.81c-1.73,0-3.18.27-3.18,1.32s1.45,1.32,3.18,1.32C46.83,69.34,47.69,68.32,47.69,68.32Z" style="fill: #fff"/>
        <path d="M59.62,65.32a3.16,3.16,0,0,0,3.43,3.51,3.21,3.21,0,0,0,3.43-3.51v-6.8h3.89V72H66.48V69.77h-.22s-1.05,2.52-4.85,2.52c-3.19,0-5.67-1.79-5.67-5.89V58.52h3.88v6.8" style="fill: #fff"/>
        <rect x="74" y="53.12" width="3.89" height="18.89" style="fill: #fff"/>
        <path d="M85.31,65.32a3.16,3.16,0,0,0,3.43,3.51,3.21,3.21,0,0,0,3.43-3.51v-6.8h3.88V72H92.17V69.77H92s-1,2.52-4.86,2.52c-3.18,0-5.67-1.79-5.67-5.89V58.52h3.89v6.8" style="fill: #fff"/>
        <polyline points="105.52 64.64 98.93 67.37 98.93 63.97 105.52 61.24 105.52 64.64" style="fill: #fff"/>
        <path d="M116.18,72.15c0,3.94-2.1,5.53-5.29,5.53a7.05,7.05,0,0,1-2.24-.35V74.15a3.37,3.37,0,0,0,1.35.29c1.4,0,2.29-.56,2.29-2.64V58.52h3.89V72.15m-1.94-19.3c1.32,0,2.16.7,2.16,1.78s-.84,1.78-2.16,1.78-2.16-.7-2.16-1.78S112.91,52.85,114.24,52.85Z" style="fill: #fff"/>
        <path d="M125.22,64.05c3.05,0,4.37,1.14,4.37,1.14v-2c0-1-.62-2.05-2.86-2.05-1.16,0-2.89.41-2.89,1.7h-4c0-3.18,2.83-4.61,6.88-4.61s6.75,1.56,6.75,5v4.22c0,1.13.27,1.45.89,1.45a1.32,1.32,0,0,0,.57-.1V72a3.69,3.69,0,0,1-1.68.28A3.2,3.2,0,0,1,130,70.4h-.19c0,.08-1.06,1.89-5,1.89-3,0-5.59-1.27-5.59-4.08s2.81-4.16,6-4.16m4.37,4.27v-.81s-.78-.81-3.24-.81c-1.73,0-3.18.27-3.18,1.32s1.45,1.32,3.18,1.32C128.73,69.34,129.59,68.32,129.59,68.32Z" style="fill: #fff"/>
        <path d="M34.11,84.65h-2V82.41l3.75-3.59H38v2.7h4.22v3.13H38V89.4C38,91.56,39.13,92,40.64,92a3.91,3.91,0,0,0,2-.48V94.8a6.26,6.26,0,0,1-2.54.49c-3.86,0-6-1.6-6-5.38V84.65" style="fill: #fff"/>
        <path d="M50.77,87.05a7,7,0,0,1,4.38,1.14v-2c0-1-.62-2-2.87-2-1.15,0-2.88.41-2.88,1.7h-4c0-3.18,2.84-4.61,6.88-4.61s6.75,1.56,6.75,5v4.22c0,1.13.27,1.45.89,1.45a1.32,1.32,0,0,0,.57-.1V95a3.61,3.61,0,0,1-1.67.28,3.21,3.21,0,0,1-3.27-1.9h-.19c0,.09-1,1.9-5,1.9-3,0-5.59-1.27-5.59-4.08s2.8-4.16,6-4.16m4.38,4.27v-.81s-.79-.81-3.24-.81c-1.73,0-3.19.27-3.19,1.32s1.46,1.32,3.19,1.32C54.28,92.34,55.15,91.32,55.15,91.32Z" style="fill: #fff"/>
        <path d="M73.85,88.21a3.16,3.16,0,0,0-3.43-3.51A3.21,3.21,0,0,0,67,88.21V95H63.11V81.52H67v2.24h.22s1.05-2.51,4.86-2.51c3.18,0,5.67,1.78,5.67,5.88V95H73.85v-6.8" style="fill: #fff"/>
        <path d="M82,84.65H80V82.41l3.75-3.59h2.1v2.7H90v3.13H85.83V89.4C85.83,91.56,87,92,88.48,92a4,4,0,0,0,2-.48V94.8a6.26,6.26,0,0,1-2.54.49c-3.86,0-6-1.6-6-5.38V84.65" style="fill: #fff"/>
        <path d="M102.16,85.7c0-.65-.08-1.56-2.7-1.56-1.86,0-2.51.54-2.51,1.24,0,2.27,9.83-.33,9.83,5.58,0,3.11-2.81,4.33-7.07,4.33s-7-1.22-7-4.59v-.44h4v.44c0,1.24.95,1.7,3,1.7s3.07-.46,3.07-1.38c0-2.59-9.82.16-9.82-5.67,0-2.72,2.56-4.1,6.58-4.1s6.62,1.35,6.62,4.45h-4" style="fill: #fff"/>
        <path d="M113,88.32a3.16,3.16,0,0,0,3.43,3.51,3.21,3.21,0,0,0,3.43-3.51v-6.8h3.88V95h-3.88V92.77h-.22s-1,2.52-4.86,2.52c-3.18,0-5.67-1.79-5.67-5.89V81.52H113v6.8" style="fill: #fff"/>
        <polyline points="133.19 87.64 126.6 90.37 126.6 86.97 133.19 84.24 133.19 87.64" style="fill: #fff"/>
        <path d="M62.17,118.29a5.93,5.93,0,0,1-4.8-1.92H57.2v7H53.32V104.52H57.2v2.21h.19a5.29,5.29,0,0,1,4.78-2.48c3.56,0,6.53,2.54,6.53,7s-3,7-6.53,7M61,107.7a3.57,3.57,0,1,0,3.75,3.57A3.48,3.48,0,0,0,61,107.7Z" style="fill: #fff"/>
        <path d="M73.53,98.85c1.32,0,2.16.7,2.16,1.78s-.84,1.78-2.16,1.78-2.16-.7-2.16-1.78.83-1.78,2.16-1.78M75.47,118H71.58V104.52h3.89Z" style="fill: #fff"/>
        <path d="M85,104.25a6,6,0,0,1,4.81,1.91H90v-7h3.89V118H90V115.8h-.19A5.29,5.29,0,0,1,85,118.29c-3.56,0-6.53-2.54-6.53-7s3-7,6.53-7m1.22,10.58a3.57,3.57,0,1,0-3.75-3.56A3.46,3.46,0,0,0,86.21,114.83Z" style="fill: #fff"/>
        <path d="M101.27,111.32a3.16,3.16,0,0,0,3.43,3.51,3.22,3.22,0,0,0,3.43-3.51v-6.8H112V118h-3.88v-2.24h-.22s-1,2.52-4.86,2.52c-3.18,0-5.67-1.79-5.67-5.89v-7.88h3.89v6.8" style="fill: #fff"/>
        <polyline points="58.8 32.25 60.23 32.25 57.91 35.61 60.43 39.25 59 39.25 57.21 36.61 57.17 36.61 55.38 39.25 53.95 39.25 56.47 35.61 54.15 32.25 55.58 32.25 57.17 34.64 57.21 34.64 58.8 32.25" style="fill: #fff"/>
        <polyline points="65.48 32.25 66.91 32.25 64.59 35.61 67.11 39.25 65.68 39.25 63.89 36.61 63.85 36.61 62.06 39.25 60.63 39.25 63.15 35.61 60.83 32.25 62.26 32.25 63.85 34.64 63.89 34.64 65.48 32.25" style="fill: #fff"/>
        <polyline points="71.63 39.25 69.91 39.25 67.41 32.25 68.72 32.25 70.72 37.98 70.82 37.98 72.82 32.25 74.13 32.25 71.63 39.25" style="fill: #fff"/>
        <polyline points="79.75 33.31 77.96 33.31 77.96 38.19 79.75 38.19 79.75 39.25 74.93 39.25 74.93 38.19 76.72 38.19 76.72 33.31 74.93 33.31 74.93 32.25 79.75 32.25 79.75 33.31" style="fill: #fff"/>
        <polyline points="85.77 33.31 83.98 33.31 83.98 38.19 85.77 38.19 85.77 39.25 80.95 39.25 80.95 38.19 82.74 38.19 82.74 33.31 80.95 33.31 80.95 32.25 85.77 32.25 85.77 33.31" style="fill: #fff"/>
        <path d="M94.93,39.35l-.81-.93h0a2.26,2.26,0,0,1-2,.93c-1.77,0-2.63-1-2.63-2.31A2.12,2.12,0,0,1,91,34.87v0l-1.29-1.5V32.25h4.91v1.06H91.29v0l2.3,2.78V34.59h1v2.7l1.11,1.31-.79.75m-1.54-1.76-1.62-1.91A1.3,1.3,0,0,0,90.66,37a1.24,1.24,0,0,0,1.41,1.27A1.36,1.36,0,0,0,93.39,37.59Z" style="fill: #fff"/>
        <polyline points="103.07 32.25 104.5 32.25 102.18 35.61 104.7 39.25 103.27 39.25 101.48 36.61 101.44 36.61 99.65 39.25 98.22 39.25 100.74 35.61 98.42 32.25 99.85 32.25 101.44 34.64 101.48 34.64 103.07 32.25" style="fill: #fff"/>
        <polyline points="109.75 32.25 111.18 32.25 108.86 35.61 111.38 39.25 109.95 39.25 108.16 36.61 108.12 36.61 106.33 39.25 104.9 39.25 107.42 35.61 105.1 32.25 106.53 32.25 108.12 34.64 108.16 34.64 109.75 32.25" style="fill: #fff"/>
        <polyline points="59.91 137.65 59.95 137.65 61.7 133.61 63.71 133.61 63.71 140.6 62.48 140.6 62.48 134.93 62.42 134.93 60.68 138.83 59.18 138.83 57.43 134.93 57.38 134.93 57.38 140.6 56.14 140.6 56.14 133.61 58.15 133.61 59.91 137.65" style="fill: #fff"/>
        <rect x="65.5" y="133.61" width="1.24" height="7" style="fill: #fff"/>
        <polyline points="69.91 134.82 69.85 134.82 69.85 140.6 68.61 140.6 68.61 133.61 70.64 133.61 73.71 139.4 73.77 139.4 73.77 133.61 75.01 133.61 75.01 140.6 72.97 140.6 69.91 134.82" style="fill: #fff"/>
        <path d="M76.6,138.16v-4.55h1.24v4.48c0,1.11.91,1.52,1.9,1.52s1.9-.41,1.9-1.52v-4.48h1.24v4.55c0,1.75-1.4,2.55-3.14,2.55s-3.14-.8-3.14-2.55" style="fill: #fff"/>
        <path d="M93.48,140.61h-1.3l-.56-1.39H88.06l-.57,1.39H86.2l2.83-7h1.61l2.84,7m-3.62-5.8h0l-1.33,3.33h2.69Z" style="fill: #fff"/>
        <path d="M95.63,140.6H94.38v-7h2.85c1.88,0,2.77.75,2.77,2.22a1.94,1.94,0,0,1-1.32,2l1.75,2.77H99l-1.61-2.53H95.63v2.53m1.6-5.93h-1.6V137h1.6c1,0,1.47-.37,1.47-1.17S98.17,134.67,97.23,134.67Z" style="fill: #fff"/>
        <polyline points="105.38 137.65 105.42 137.65 107.18 133.61 109.19 133.61 109.19 140.6 107.95 140.6 107.95 134.93 107.9 134.93 106.15 138.83 104.65 138.83 102.91 134.93 102.85 134.93 102.85 140.6 101.62 140.6 101.62 133.61 103.62 133.61 105.38 137.65" style="fill: #fff"/>
      </g>
    </g>
  </g>
</svg>
