<svg xmlns="http://www.w3.org/2000/svg" viewBox="0 0 24 24">
  <defs>
    <style>
      .cls-1 {
        fill: none;
      }

      .cls-2 {
        fill: #993921;
      }

      .cls-3 {
        fill: #fff;
      }
    </style>
  </defs>
  <title>Marker_event2_BG</title>
  <g id="Layer_2" data-name="Layer 2">
    <g id="_40_Muusika" data-name="40_Muusika">
      <g>
        <rect class="cls-1" width="24" height="24"/>
        <circle class="cls-2" cx="12" cy="12" r="11.75"/>
        <path class="cls-3" d="M17.72,4.94a.39.39,0,0,0-.36-.06L9.29,7.47A.41.41,0,0,0,9,7.86V10.6H9v5.24a2.76,2.76,0,0,0-3.14.06,1.7,1.7,0,0,0-.72,1.36,1.73,1.73,0,0,0,.72,1.36,2.69,2.69,0,0,0,1.61.51,2.63,2.63,0,0,0,1.6-.51,1.71,1.71,0,0,0,.73-1.36V10.9l7.27-2.34v4.69a2.63,2.63,0,0,0-1.53-.46,2.69,2.69,0,0,0-1.61.51,1.64,1.64,0,0,0,0,2.72,2.69,2.69,0,0,0,1.61.51,2.63,2.63,0,0,0,1.6-.51,1.7,1.7,0,0,0,.73-1.36V8h0V5.26A.39.39,0,0,0,17.72,4.94Z"/>
      </g>
    </g>
  </g>
</svg>
