<svg xmlns="http://www.w3.org/2000/svg" viewBox="0 0 24 24">
  <defs>
    <style>
      .cls-1 {
        fill: #993921;
      }

      .cls-2 {
        fill: #fff;
      }
    </style>
  </defs>
  <title>Marker_event2</title>
  <g id="Layer_2" data-name="Layer 2">
    <g id="_40_Muusika" data-name="40_Muusika">
      <g>
        <circle class="cls-1" cx="12" cy="12" r="12"/>
        <path class="cls-2" d="M18.9,3.68a.47.47,0,0,0-.43-.07L8.85,6.66a.48.48,0,0,0-.33.46v3.23h0v6.18A3.23,3.23,0,0,0,6.69,16a3.17,3.17,0,0,0-1.91.6,1.92,1.92,0,0,0,0,3.21,3.15,3.15,0,0,0,1.91.6,3.2,3.2,0,0,0,1.92-.6,2,2,0,0,0,.86-1.6V10.7l8.67-2.76v5.53a3.35,3.35,0,0,0-3.74.06,1.93,1.93,0,0,0,0,3.21,3.36,3.36,0,0,0,3.83,0,2,2,0,0,0,.86-1.6V7.3h0V4.06A.47.47,0,0,0,18.9,3.68Z"/>
      </g>
    </g>
  </g>
</svg>
