<?xml version="1.0" encoding="utf-8"?>
<!-- Generator: Adobe Illustrator 21.0.2, SVG Export Plug-In . SVG Version: 6.00 Build 0)  -->
<svg version="1.1" id="Layer_1" xmlns="http://www.w3.org/2000/svg" xmlns:xlink="http://www.w3.org/1999/xlink" x="0px" y="0px"
	 viewBox="0 0 24 24" style="enable-background:new 0 0 24 24;" xml:space="preserve">
<style type="text/css">
	.st0{fill:#FFFFFF;}
</style>
<circle cx="12" cy="12" r="12"/>
<path class="st0" d="M19.1,5.4H4.9C4.2,5.4,3.6,6,3.6,6.7v10.5c0,0.7,0.6,1.3,1.3,1.3h14.1c0.7,0,1.3-0.6,1.3-1.3V6.7
	C20.4,6,19.8,5.4,19.1,5.4z M18.4,7.4v8l-4.5-7.2l-4.2,6.3l-1.9-3.9l-2.1,4.3V7.4H18.4z M9.6,16.6H5.9l1.9-3.7L9.6,16.6z M10.2,15.5
	l3.7-5.5l4.1,6.6h-7.3L10.2,15.5z"/>
</svg>
