<svg xmlns="http://www.w3.org/2000/svg" viewBox="0 0 24 24">
  <defs>
    <style>
      .cls-1 {
        fill: #fff;
      }

      .cls-2 {
        fill: #993921;
      }
    </style>
  </defs>
  <title>marker-torch_brown</title>
  <g id="Layer_2" data-name="Layer 2">
    <g id="Layer_1-2" data-name="Layer 1">
      <rect class="cls-1" x="10.27" y="10.39" width="3.46" height="1.11"/>
      <rect class="cls-1" x="11" y="11.41" width="2" height="6.07"/>
    </g>
    <g id="Layer_3" data-name="Layer 3">
      <circle class="cls-2" cx="12" cy="12" r="12"/>
      <path class="cls-1" d="M16.25,10.4H7.75c.79,2.57,2.16,3.52,3.14,3.87h-.48v1.11h.73v6h2v-6h.72V14.27h-.75C14.09,13.92,15.46,13,16.25,10.4Z"/>
    </g>
    <g id="Layer_2-2" data-name="Layer 2">
      <path class="cls-1" d="M13.25,2.36s2.1,1.67,2.1,3.81a3.18,3.18,0,0,1-3.17,3.4A3.43,3.43,0,0,1,8.85,6.51C8.85,5,10.32,4.6,10.75,1c0,0,2,1.82,2.16,3Z"/>
    </g>
  </g>
</svg>
