<svg xmlns="http://www.w3.org/2000/svg" viewBox="0 0 24 24"><defs><style>.cls-1{fill:#7c7b7b;}.cls-2{fill:#fff;}</style></defs><title>marker-castle</title><g id="Layer_2" data-name="Layer 2"><g id="Layer_1-2" data-name="Layer 1"><circle class="cls-1" cx="12" cy="12" r="12"/><path class="cls-2" d="M6.18,4.58v.75h1V4.58h1v.75h1V4.58h1v.75h1V4.59h1V7L11.2,8v3.84h.85v-.75h1v.75h1.07v-.75h1v.75h1v-.75h1v.75h1v-.75h.85v8.32H16.11V15.47a1.63,1.63,0,0,0-1.49-1.17,1.77,1.77,0,0,0-1.49,1.17v3.95H6L5.86,8.1l-.64-1V4.58Zm3.15,6.88V9.25c0-.24-.43-.55-.86-.55-.74,0-.74.55-.74.55v2.22Z"/></g></g></svg>