<svg xmlns="http://www.w3.org/2000/svg" viewBox="0 0 24 24">
  <defs>
    <style>
      .cls-1 {
        fill: #7d7c7c;
      }

      .cls-2 {
        fill: #c1bebe;
      }
    </style>
  </defs>
  <title>marker-sight</title>
  <g id="Layer_2" data-name="Layer 2">
    <g id="Layer_1-2" data-name="Layer 1">
      <g>
        <circle class="cls-1" cx="12" cy="12" r="12"/>
        <path class="cls-2" d="M5.93,4v.78h1V4h1v.78h1V4h1v.78h1V4h1V6.53l-.78,1v4h.9v-.78h1v.78h1.11v-.78h1v.78h1v-.78h1v.78h1v-.78h.89L19,19H16s.29-3.12.29-3.67a1.72,1.72,0,0,0-1.56-1.23,1.85,1.85,0,0,0-1.56,1.23L13,19H5.5L5.59,7.64l-.66-1V4Zm3.28,7.19V8.83c0-.25-.44-.58-.89-.58-.78,0-.77.58-.77.58v2.32Z"/>
      </g>
    </g>
  </g>
</svg>
