<svg xmlns="http://www.w3.org/2000/svg" viewBox="0 0 24 24">
  <defs>
    <style>
      .cls-1 {
        fill: #993921;
      }

      .cls-2 {
        fill: #fff;
      }
    </style>
  </defs>
  <title>Marker_event2</title>
  <g id="Layer_2" data-name="Layer 2">
    <g id="_40_Muusika" data-name="40_Muusika">
      <g>
        <circle class="cls-1" cx="12" cy="12" r="12"/>
        <path class="cls-2" d="M17.84,4.79a.41.41,0,0,0-.37-.06L9.23,7.38A.4.4,0,0,0,9,7.77v2.8H9v5.35a2.76,2.76,0,0,0-1.57-.46A2.72,2.72,0,0,0,5.74,16a1.68,1.68,0,0,0,0,2.78,2.72,2.72,0,0,0,1.64.52A2.68,2.68,0,0,0,9,18.77a1.73,1.73,0,0,0,.74-1.39v-6.5l7.43-2.39v4.78a2.77,2.77,0,0,0-1.57-.47,2.73,2.73,0,0,0-1.64.53,1.75,1.75,0,0,0-.74,1.39A1.78,1.78,0,0,0,14,16.11a2.79,2.79,0,0,0,1.64.52,2.74,2.74,0,0,0,1.64-.52A1.75,1.75,0,0,0,18,14.72V7.92h0V5.12A.41.41,0,0,0,17.84,4.79Z"/>
      </g>
    </g>
  </g>
</svg>
