<?xml version="1.0" encoding="utf-8"?>
<!-- Generator: Adobe Illustrator 23.0.1, SVG Export Plug-In . SVG Version: 6.00 Build 0)  -->
<svg version="1.1" id="Layer_1" xmlns="http://www.w3.org/2000/svg" xmlns:xlink="http://www.w3.org/1999/xlink" x="0px" y="0px"
	 viewBox="0 0 24 24" style="enable-background:new 0 0 24 24;" xml:space="preserve">
<style type="text/css">
	.st0{fill:#FFFFFF;}
</style>
<circle cx="12" cy="12" r="12"/>
<path class="st0" d="M5.93,2.96v0.78h1V2.96h1v0.78h1V2.96h1v0.78h1l0-0.77l1-0.01v2.56l-0.78,1v4.01h0.89V9.76h1v0.78h1.11V9.76h1
	v0.78h1V9.76h1v0.78h1V9.76h0.89v8.69h-2.79c0,0,0-3.56,0-4.12c0-0.11-0.45-1.23-1.56-1.23c-1.12,0-1.56,1.23-1.56,1.23v4.12H5.71
	L5.59,6.64l-0.67-1V2.96H5.93z M9.21,10.15c0,0,0-2.07,0-2.32c0-0.25-0.45-0.58-0.9-0.58c-0.77,0-0.77,0.58-0.77,0.58v2.32H9.21z"/>
</svg>
