<svg xmlns="http://www.w3.org/2000/svg" viewBox="0 0 24 24"><defs><style>.cls-1{fill:#7c7b7b;}.cls-2{fill:#d8d4d4;}</style></defs><title>Asset 1</title><g id="Layer_2" data-name="Layer 2"><g id="Layer_1-2" data-name="Layer 1"><circle class="cls-1" cx="12" cy="12" r="12"/><path class="cls-2" d="M19.07,5.38H4.93A1.35,1.35,0,0,0,3.58,6.73V17.27a1.35,1.35,0,0,0,1.35,1.35H19.07a1.35,1.35,0,0,0,1.35-1.35V6.73A1.35,1.35,0,0,0,19.07,5.38Zm-.67,2v8L13.87,8.18,9.65,14.47,7.73,10.61,5.6,14.86V7.4ZM9.59,16.6H5.87l1.86-3.73Zm.58-1.09L13.84,10,18,16.6H10.71Z"/></g></g></svg>