<svg xmlns="http://www.w3.org/2000/svg" viewBox="0 0 24 24"><defs><style>.cls-1{fill:#7c7b7b;}.cls-2{fill:#fff;}</style></defs><title>marker-picture</title><g id="Layer_2" data-name="Layer 2"><g id="Layer_1-2" data-name="Layer 1"><circle class="cls-1" cx="12" cy="12" r="12"/><path class="cls-2" d="M19.89,5.57H4.11a.26.26,0,0,0-.26.26V18.17a.26.26,0,0,0,.26.26H19.89a.26.26,0,0,0,.26-.26V5.83A.26.26,0,0,0,19.89,5.57ZM18.6,16.37,15,12.69a.11.11,0,0,0-.15,0l-2.46,2.17L9.29,11a.1.1,0,0,0-.08,0,.11.11,0,0,0-.08,0L5.4,16V7.12H18.6v9.24Z"/><path class="cls-2" d="M14.7,10.85a1.27,1.27,0,1,0-1.27-1.27A1.27,1.27,0,0,0,14.7,10.85Z"/></g></g></svg>